<?xml version="1.0" standalone="no"?><!DOCTYPE svg PUBLIC "-//W3C//DTD SVG 1.1//EN" "http://www.w3.org/Graphics/SVG/1.1/DTD/svg11.dtd"><svg t="1552289272215" class="icon" style="" viewBox="0 0 1024 1024" version="1.1" xmlns="http://www.w3.org/2000/svg" p-id="2713" xmlns:xlink="http://www.w3.org/1999/xlink" width="32" height="32"><defs><style type="text/css"></style></defs><path d="M512 0C229.004 0 0 229.004 0 512s229.004 512 512 512 512-229.004 512-512S794.996 0 512 0z m260.655 425.425L493.382 704.698c-5.586 5.586-13.033 9.31-21.411 9.31-10.24 1.861-20.48-0.932-27.927-8.379L268.102 528.756a30.906 30.906 0 0 1 0-43.752l14.894-14.895c12.102-12.102 31.651-12.102 43.753 0l141.498 141.498 244.83-244.829c12.101-12.102 31.65-12.102 43.752 0l15.826 14.895c12.101 12.102 12.101 31.65 0 43.752z" p-id="2714" fill="#19be6b"></path></svg>